<svg xmlns="http://www.w3.org/2000/svg" xmlns:svg="http://www.w3.org/2000/svg" id="svg466" width="456.792" height="222.386" version="1.1" viewBox="0 0 120.86 58.84"><metadata id="metadata463"/><g id="layer1" transform="translate(-3.1805143,-2.3853858)"><g id="g790"><path style="fill:#fff;fill-opacity:1;fill-rule:nonzero;stroke:none;stroke-width:.352777" id="path170" d="m 7.257144,11.722468 h 41.275001 v 44.45 H 7.257144 Z"/><path style="fill:#000;fill-opacity:1;fill-rule:nonzero;stroke:none;stroke-width:.352777" id="path172" d="m 7.257144,11.637808 h 41.359667 v 0.16933 H 7.257144 Z"/><path style="fill:#000;fill-opacity:1;fill-rule:nonzero;stroke:none;stroke-width:.352777" id="path174" d="m 48.447478,11.722468 h 0.169333 v 44.53467 h -0.169333 z"/><path style="fill:#000;fill-opacity:1;fill-rule:nonzero;stroke:none;stroke-width:.352777" id="path176" d="m 7.172478,56.087798 h 41.359667 v 0.16934 H 7.172478 Z"/><path style="fill:#000;fill-opacity:1;fill-rule:nonzero;stroke:none;stroke-width:.352777" id="path178" d="m 7.172478,11.637808 h 0.169333 v 44.53466 H 7.172478 Z"/><text style="font-variant:normal;font-weight:400;font-size:3.8735px;font-family:'Times New Roman';-inkscape-font-specification:TimesNewRoman;writing-mode:lr-tb;fill:#000;fill-opacity:1;fill-rule:nonzero;stroke:none;stroke-width:.352777" id="text182" x="21.566" y="8.42"><tspan style="stroke-width:.352777" id="tspan180" x="21.566 24.146 25.219 26.293 28.009 29.942" y="8.42">Client</tspan></text><text style="font-variant:normal;font-weight:700;font-size:3.8735px;font-family:'Times New Roman';-inkscape-font-specification:'TimesNewRoman Bold';writing-mode:lr-tb;fill:#000;fill-opacity:1;fill-rule:nonzero;stroke:none;stroke-width:.352777" id="text186" x="13.607" y="17.247"><tspan style="stroke-width:.352777" id="tspan184" x="13.607 15.11 16.826 18.562 20.712 22.364 24.1 25.052 27.867 29.582 31.732 33.882 35.598 37.1 38.386 39.36 40.646 42.579" y="17.247">secure Request (1)</tspan></text><path style="fill:#000;fill-opacity:1;fill-rule:nonzero;stroke:none;stroke-width:.352777" id="path188" d="m 71.455645,16.484968 v -1.16416 l 0.23283,0.0635 3.85233,1.10066 -3.85233,1.10067 -0.23283,0.0635 v -0.23283 l 0.127,-0.16934 3.25966,-0.93133 0.10584,0.33867 h -0.10584 l -3.25966,-0.93134 0.10583,-0.33866 0.127,0.16933 v 0.93133"/><path style="fill:#000;fill-opacity:1;fill-rule:nonzero;stroke:none;stroke-width:.352777" id="path190" d="m 71.455645,16.484968 h 0.35983 v 0.93134 h -0.35983 z"/><path style="fill:#000;fill-opacity:1;fill-rule:evenodd;stroke:none;stroke-width:.352777" id="path192" d="m 71.624975,16.484968 v -0.93133 l 3.25967,0.93133 -3.25967,0.93134"/><path style="fill:#000;fill-opacity:1;fill-rule:nonzero;stroke:none;stroke-width:.352777" id="path194" d="m 48.447478,16.400308 h 0.08467 v 0.16933 h -0.08467 z"/><path style="fill:#000;fill-opacity:1;fill-rule:nonzero;stroke:none;stroke-width:.352777" id="path196" d="m 48.532145,16.400308 h 23.00816 v 0.16933 h -23.00816 z"/><path style="fill:#000;fill-opacity:1;fill-rule:nonzero;stroke:none;stroke-width:.352777" id="path198" d="m 75.519645,11.637808 h 39.772165 v 0.16933 H 75.519645 Z"/><path style="fill:#000;fill-opacity:1;fill-rule:nonzero;stroke:none;stroke-width:.352777" id="path200" d="m 115.12248,11.722468 h 0.16933 v 44.53467 h -0.16933 z"/><path style="fill:#000;fill-opacity:1;fill-rule:nonzero;stroke:none;stroke-width:.352777" id="path202" d="m 75.434975,56.087798 h 39.772165 v 0.16934 H 75.434975 Z"/><path style="fill:#000;fill-opacity:1;fill-rule:nonzero;stroke:none;stroke-width:.352777" id="path204" d="m 75.434975,11.637808 h 0.16933 v 44.53466 h -0.16933 z"/><text style="font-variant:normal;font-weight:700;font-size:3.8735px;font-family:'Times New Roman';-inkscape-font-specification:'TimesNewRoman Bold';writing-mode:lr-tb;fill:#000;fill-opacity:1;fill-rule:nonzero;stroke:none;stroke-width:.352777" id="text208" x="80.282" y="17.247"><tspan style="stroke-width:.352777" id="tspan206" x="80.282 82.216 84.163 85.237 86.31 88.461 90.395 91.681 93.398 94.372 97.166 98.902 101.052 103.203 104.939 106.441 107.728 108.702 109.988 111.922" y="17.247">validate Request (2)</tspan></text><text style="font-variant:normal;font-weight:400;font-size:3.8735px;font-family:'Times New Roman';-inkscape-font-specification:TimesNewRoman;writing-mode:lr-tb;fill:#000;fill-opacity:1;fill-rule:nonzero;stroke:none;stroke-width:.352777" id="text212" x="87.669" y="8.42"><tspan style="stroke-width:.352777" id="tspan210" x="87.669 89.823 91.544 92.834 94.771 96.491" y="8.42">Server</tspan></text><path style="fill:#000;fill-opacity:1;fill-rule:nonzero;stroke:none;stroke-width:.352777" id="path214" d="m 92.982149,25.120968 h 1.16416 l -0.0635,0.23284 -1.10066,3.85233 -1.10067,-3.85233 -0.0635,-0.23284 h 0.23283 l 0.16934,0.127 0.93133,3.25967 -0.33867,0.10583 v -0.10583 l 0.93134,-3.25967 0.33866,0.10584 -0.16933,0.127 h -0.93133"/><path style="fill:#000;fill-opacity:1;fill-rule:nonzero;stroke:none;stroke-width:.352777" id="path216" d="m 92.050809,25.120968 h 0.93134 v 0.35984 h -0.93134 z"/><path style="fill:#000;fill-opacity:1;fill-rule:evenodd;stroke:none;stroke-width:.352777" id="path218" d="m 92.982149,25.290308 h 0.93133 l -0.93133,3.25966 -0.93134,-3.25966"/><path style="fill:#000;fill-opacity:1;fill-rule:nonzero;stroke:none;stroke-width:.352777" id="path220" d="m 92.897479,19.575308 h 0.16933 v 0.0847 h -0.16933 z"/><path style="fill:#000;fill-opacity:1;fill-rule:nonzero;stroke:none;stroke-width:.352777" id="path222" d="m 92.897479,19.659968 h 0.16933 v 5.54567 h -0.16933 z"/><text style="font-variant:normal;font-weight:400;font-size:3.8735px;font-family:'Times New Roman';-inkscape-font-specification:TimesNewRoman;writing-mode:lr-tb;fill:#000;fill-opacity:1;fill-rule:nonzero;stroke:none;stroke-width:.352777" id="text226" x="78.695" y="33.122"><tspan style="stroke-width:.352777" id="tspan224" x="78.695 81.491 82.567 84.074 86.01 87.73 88.806 90.525 92.462 93.436 94.512 96.448 97.422 99.576 101.295 102.584 104.521 105.597 107.333" y="33.122">Dispatch to Service</tspan></text><path style="fill:#000;fill-opacity:1;fill-rule:nonzero;stroke:none;stroke-width:.352777" id="path228" d="m 92.982149,40.995968 h 1.16416 l -0.0635,0.23283 -1.10066,3.85234 -1.10067,-3.85234 -0.0635,-0.23283 h 0.23283 l 0.16934,0.127 0.93133,3.25967 -0.33867,0.10583 v -0.10583 l 0.93134,-3.25967 0.33866,0.10583 -0.16933,0.127 h -0.93133"/><path style="fill:#000;fill-opacity:1;fill-rule:nonzero;stroke:none;stroke-width:.352777" id="path230" d="m 92.050809,40.995968 h 0.93134 v 0.35983 h -0.93134 z"/><path style="fill:#000;fill-opacity:1;fill-rule:evenodd;stroke:none;stroke-width:.352777" id="path232" d="m 92.982149,41.165298 h 0.93133 l -0.93133,3.25967 -0.93134,-3.25967"/><path style="fill:#000;fill-opacity:1;fill-rule:nonzero;stroke:none;stroke-width:.352777" id="path234" d="m 92.897479,35.450298 h 0.16933 v 0.0847 h -0.16933 z"/><path style="fill:#000;fill-opacity:1;fill-rule:nonzero;stroke:none;stroke-width:.352777" id="path236" d="m 92.897479,35.534968 h 0.16933 v 5.54567 h -0.16933 z"/><text style="font-variant:normal;font-weight:700;font-size:3.8735px;font-family:'Times New Roman';-inkscape-font-specification:'TimesNewRoman Bold';writing-mode:lr-tb;fill:#000;fill-opacity:1;fill-rule:nonzero;stroke:none;stroke-width:.352777" id="text240" x="80.282" y="49.822"><tspan style="stroke-width:.352777" id="tspan238" x="80.282 81.787 83.506 85.242 87.394 89.046 90.764 91.738 94.533 96.251 97.756 99.908 101.844 103.996 105.501 107.219 108.193 109.481 111.417" y="49.822">secure Response (3)</tspan></text><path style="fill:#000;fill-opacity:1;fill-rule:nonzero;stroke:none;stroke-width:.352777" id="path242" d="m 52.596145,49.822468 v 1.16417 l -0.232834,-0.0635 -3.852333,-1.10067 3.852333,-1.10067 0.232834,-0.0635 v 0.23284 l -0.127,0.16933 -3.259667,0.93133 -0.105833,-0.33866 h 0.105833 l 3.259667,0.93133 -0.105834,0.33867 -0.127,-0.16934 v -0.93133"/><path style="fill:#000;fill-opacity:1;fill-rule:nonzero;stroke:none;stroke-width:.352777" id="path244" d="m 52.236311,48.891138 h 0.359834 v 0.93133 h -0.359834 z"/><path style="fill:#000;fill-opacity:1;fill-rule:evenodd;stroke:none;stroke-width:.352777" id="path246" d="m 52.426811,49.822468 v 0.93133 l -3.259666,-0.93133 3.259666,-0.93133"/><path style="fill:#000;fill-opacity:1;fill-rule:nonzero;stroke:none;stroke-width:.352777" id="path248" d="m 75.519645,49.737798 h 0.0847 v 0.16934 h -0.0847 z"/><path style="fill:#000;fill-opacity:1;fill-rule:nonzero;stroke:none;stroke-width:.352777" id="path250" d="m 52.511478,49.737798 h 23.008167 v 0.16934 H 52.511478 Z"/><text style="font-variant:normal;font-weight:700;font-size:3.8735px;font-family:'Times New Roman';-inkscape-font-specification:'TimesNewRoman Bold';writing-mode:lr-tb;fill:#000;fill-opacity:1;fill-rule:nonzero;stroke:none;stroke-width:.352777" id="text254" x="10.432" y="50.584"><tspan style="stroke-width:.352777" id="tspan252" x="10.432 12.367 14.303 15.378 16.453 18.605 20.54 21.829 23.547 24.521 27.316 29.052 30.557 32.709 34.645 36.797 38.302 40.038 40.991 42.279 44.214" y="50.584">validate Response (4)</tspan></text><path style="fill:#000;fill-opacity:1;fill-rule:nonzero;stroke:none;stroke-width:.352777" id="path256" d="m 51.453145,41.271138 0.677333,0.65616 0.148167,0.1905 -0.1905,0.10584 -2.963334,1.651 -0.550333,0.29633 0.296333,-0.55033 1.629834,-2.94217 0.127,-0.21167 0.169333,0.14817 0.02117,0.21167 -1.629834,2.96333 -0.3175,-0.16933 0.08467,-0.0635 2.963333,-1.651 0.169334,0.3175 -0.211667,-0.0423 -0.677333,-0.65617"/><path style="fill:#000;fill-opacity:1;fill-rule:nonzero;stroke:none;stroke-width:.352777" id="path258" d="m 50.796978,40.614968 0.656167,0.65617 -0.254,0.254 -0.656167,-0.65617"/><path style="fill:#000;fill-opacity:1;fill-rule:evenodd;stroke:none;stroke-width:.352777" id="path260" d="m 51.326145,41.398138 0.677333,0.65616 -2.963333,1.651 1.629833,-2.96333"/><path style="fill:#000;fill-opacity:1;fill-rule:nonzero;stroke:none;stroke-width:.352777" id="path262" d="m 71.942475,20.675968 0.0635,-0.0635 -0.127,-0.127 -0.0635,0.0635"/><path style="fill:#000;fill-opacity:1;fill-rule:nonzero;stroke:none;stroke-width:.352777" id="path264" d="m 71.011145,21.628468 -0.0635,0.0635 -0.127,-0.127 0.0635,-0.0635"/><path style="fill:#000;fill-opacity:1;fill-rule:nonzero;stroke:none;stroke-width:.352777" id="path266" d="m 71.942475,20.675968 -0.127,-0.127 -0.93133,0.9525 0.127,0.127"/><path style="fill:#000;fill-opacity:1;fill-rule:evenodd;stroke:none;stroke-width:.352777" id="path268" d="m 69.423645,23.215968 0.0635,-0.0635 -0.127,-0.127 -0.0635,0.0635"/><path style="fill:#000;fill-opacity:1;fill-rule:evenodd;stroke:none;stroke-width:.352777" id="path270" d="m 67.624475,25.057468 -0.0635,0.0635 -0.127,-0.127 0.0635,-0.0635"/><path style="fill:#000;fill-opacity:1;fill-rule:evenodd;stroke:none;stroke-width:.352777" id="path272" d="m 69.423645,23.215968 -0.127,-0.127 -1.79917,1.8415 0.127,0.127"/><path style="fill:#000;fill-opacity:1;fill-rule:evenodd;stroke:none;stroke-width:.352777" id="path274" d="m 66.036975,26.666138 0.0635,-0.0635 -0.127,-0.127 -0.0635,0.0635"/><path style="fill:#000;fill-opacity:1;fill-rule:evenodd;stroke:none;stroke-width:.352777" id="path276" d="m 64.216642,28.486468 -0.0635,0.0635 -0.127,-0.127 0.0635,-0.0635"/><path style="fill:#000;fill-opacity:1;fill-rule:evenodd;stroke:none;stroke-width:.352777" id="path278" d="m 66.036975,26.666138 -0.127,-0.127 -1.820333,1.82033 0.127,0.127"/><path style="fill:#000;fill-opacity:1;fill-rule:evenodd;stroke:none;stroke-width:.352777" id="path280" d="m 62.629142,30.095138 0.0635,-0.0635 -0.127,-0.127 -0.0635,0.0635"/><path style="fill:#000;fill-opacity:1;fill-rule:evenodd;stroke:none;stroke-width:.352777" id="path282" d="m 60.829975,31.936638 -0.0635,0.0635 -0.127,-0.127 0.0635,-0.0635"/><path style="fill:#000;fill-opacity:1;fill-rule:evenodd;stroke:none;stroke-width:.352777" id="path284" d="m 62.629142,30.095138 -0.127,-0.127 -1.799167,1.8415 0.127,0.127"/><path style="fill:#000;fill-opacity:1;fill-rule:evenodd;stroke:none;stroke-width:.352777" id="path286" d="m 59.242478,33.524138 0.0635,-0.0635 -0.127,-0.127 -0.0635,0.0635"/><path style="fill:#000;fill-opacity:1;fill-rule:evenodd;stroke:none;stroke-width:.352777" id="path288" d="m 57.422145,35.365638 -0.0635,0.0635 -0.127,-0.127 0.0635,-0.0635"/><path style="fill:#000;fill-opacity:1;fill-rule:evenodd;stroke:none;stroke-width:.352777" id="path290" d="m 59.242478,33.524138 -0.127,-0.127 -1.820333,1.8415 0.127,0.127"/><path style="fill:#000;fill-opacity:1;fill-rule:evenodd;stroke:none;stroke-width:.352777" id="path292" d="m 55.855811,36.953138 0.0635,-0.0635 -0.127,-0.127 -0.0635,0.0635"/><path style="fill:#000;fill-opacity:1;fill-rule:evenodd;stroke:none;stroke-width:.352777" id="path294" d="m 54.035478,38.794638 -0.0635,0.0635 -0.127,-0.127 0.0635,-0.0635"/><path style="fill:#000;fill-opacity:1;fill-rule:evenodd;stroke:none;stroke-width:.352777" id="path296" d="m 55.855811,36.953138 -0.127,-0.127 -1.820333,1.8415 0.127,0.127"/><path style="fill:#000;fill-opacity:1;fill-rule:nonzero;stroke:none;stroke-width:.352777" id="path298" d="m 52.447978,40.403298 0.0635,-0.0635 -0.127,-0.127 -0.0635,0.0635"/><path style="fill:#000;fill-opacity:1;fill-rule:nonzero;stroke:none;stroke-width:.352777" id="path300" d="m 51.516645,41.334638 -0.0635,0.0635 -0.127,-0.127 0.0635,-0.0635"/><path style="fill:#000;fill-opacity:1;fill-rule:nonzero;stroke:none;stroke-width:.352777" id="path302" d="m 52.447978,40.403298 -0.127,-0.127 -0.931333,0.93134 0.127,0.127"/><path style="fill:#000;fill-opacity:1;fill-rule:nonzero;stroke:none;stroke-width:.352777" id="path304" d="m 72.429305,24.274308 -0.65616,-0.65617 -0.14817,-0.16933 0.21167,-0.127 2.96333,-1.62984 0.52917,-0.29633 -0.29634,0.55033 -1.651,2.96334 -0.127,0.1905 -0.16933,-0.14817 -0.0212,-0.21167 1.651,-2.96333 0.3175,0.16933 -0.0847,0.0635 -2.96333,1.62984 -0.14817,-0.3175 0.1905,0.0423 0.65617,0.65616"/><path style="fill:#000;fill-opacity:1;fill-rule:nonzero;stroke:none;stroke-width:.352777" id="path306" d="m 73.085475,24.951638 -0.65617,-0.67733 0.254,-0.254 0.65617,0.67733"/><path style="fill:#000;fill-opacity:1;fill-rule:evenodd;stroke:none;stroke-width:.352777" id="path308" d="m 72.556305,24.147308 -0.65616,-0.65617 2.96333,-1.62983 -1.651,2.96333"/><path style="fill:#000;fill-opacity:1;fill-rule:nonzero;stroke:none;stroke-width:.352777" id="path310" d="m 49.315311,47.007298 -0.0635,0.0635 0.127,0.127 0.0635,-0.0635"/><path style="fill:#000;fill-opacity:1;fill-rule:nonzero;stroke:none;stroke-width:.352777" id="path312" d="m 50.267811,46.075968 0.0635,-0.0635 0.127,0.127 -0.0635,0.0635"/><path style="fill:#000;fill-opacity:1;fill-rule:nonzero;stroke:none;stroke-width:.352777" id="path314" d="m 49.315311,47.007298 0.127,0.127 0.9525,-0.93133 -0.127,-0.127"/><path style="fill:#000;fill-opacity:1;fill-rule:evenodd;stroke:none;stroke-width:.352777" id="path316" d="m 51.791811,44.573138 -0.0635,0.0635 0.127,0.127 0.0635,-0.0635"/><path style="fill:#000;fill-opacity:1;fill-rule:evenodd;stroke:none;stroke-width:.352777" id="path318" d="m 53.527478,42.837468 0.0635,-0.0635 0.127,0.127 -0.0635,0.0635"/><path style="fill:#000;fill-opacity:1;fill-rule:evenodd;stroke:none;stroke-width:.352777" id="path320" d="m 51.791811,44.573138 0.127,0.127 1.735667,-1.73567 -0.127,-0.127"/><path style="fill:#000;fill-opacity:1;fill-rule:evenodd;stroke:none;stroke-width:.352777" id="path322" d="m 55.051478,41.334638 -0.0635,0.0635 0.127,0.127 0.0635,-0.0635"/><path style="fill:#000;fill-opacity:1;fill-rule:evenodd;stroke:none;stroke-width:.352777" id="path324" d="m 56.808311,39.598968 0.0635,-0.0635 0.127,0.127 -0.0635,0.0635"/><path style="fill:#000;fill-opacity:1;fill-rule:evenodd;stroke:none;stroke-width:.352777" id="path326" d="m 55.051478,41.334638 0.127,0.127 1.756833,-1.73567 -0.127,-0.127"/><path style="fill:#000;fill-opacity:1;fill-rule:evenodd;stroke:none;stroke-width:.352777" id="path328" d="m 58.332311,38.096138 -0.0635,0.0635 0.127,0.127 0.0635,-0.0635"/><path style="fill:#000;fill-opacity:1;fill-rule:evenodd;stroke:none;stroke-width:.352777" id="path330" d="m 60.089142,36.360468 0.0635,-0.0635 0.127,0.127 -0.0635,0.0635"/><path style="fill:#000;fill-opacity:1;fill-rule:evenodd;stroke:none;stroke-width:.352777" id="path332" d="m 58.332311,38.096138 0.127,0.127 1.756831,-1.73567 -0.126997,-0.127"/><path style="fill:#000;fill-opacity:1;fill-rule:evenodd;stroke:none;stroke-width:.352777" id="path334" d="m 61.591975,34.857638 -0.0635,0.0635 0.127,0.127 0.0635,-0.0635"/><path style="fill:#000;fill-opacity:1;fill-rule:evenodd;stroke:none;stroke-width:.352777" id="path336" d="m 63.348809,33.121968 0.0635,-0.0635 0.127,0.127 -0.0635,0.0635"/><path style="fill:#000;fill-opacity:1;fill-rule:evenodd;stroke:none;stroke-width:.352777" id="path338" d="m 61.591975,34.857638 0.127,0.127 1.756834,-1.73567 -0.127,-0.127"/><path style="fill:#000;fill-opacity:1;fill-rule:evenodd;stroke:none;stroke-width:.352777" id="path340" d="m 64.872809,31.619138 -0.0635,0.0635 0.127,0.127 0.0635,-0.0635"/><path style="fill:#000;fill-opacity:1;fill-rule:evenodd;stroke:none;stroke-width:.352777" id="path342" d="m 66.629642,29.883468 0.0635,-0.0635 0.127003,0.127 -0.0635,0.0635"/><path style="fill:#000;fill-opacity:1;fill-rule:evenodd;stroke:none;stroke-width:.352777" id="path344" d="m 64.872809,31.619138 0.127,0.127 1.756836,-1.73567 -0.127003,-0.127"/><path style="fill:#000;fill-opacity:1;fill-rule:evenodd;stroke:none;stroke-width:.352777" id="path346" d="m 68.153645,28.380638 -0.0635,0.0635 0.127,0.127 0.0635,-0.0635"/><path style="fill:#000;fill-opacity:1;fill-rule:evenodd;stroke:none;stroke-width:.352777" id="path348" d="m 69.910475,26.644968 0.0635,-0.0635 0.127,0.127 -0.0635,0.0635"/><path style="fill:#000;fill-opacity:1;fill-rule:evenodd;stroke:none;stroke-width:.352777" id="path350" d="m 68.153645,28.380638 0.127,0.127 1.75683,-1.73567 -0.127,-0.127"/><path style="fill:#000;fill-opacity:1;fill-rule:nonzero;stroke:none;stroke-width:.352777" id="path352" d="m 71.413305,25.142138 -0.0635,0.0635 0.127,0.127 0.0635,-0.0635"/><path style="fill:#000;fill-opacity:1;fill-rule:nonzero;stroke:none;stroke-width:.352777" id="path354" d="m 72.365805,24.210808 0.0635,-0.0635 0.127,0.127 -0.0635,0.0635"/><path style="fill:#000;fill-opacity:1;fill-rule:nonzero;stroke:none;stroke-width:.352777" id="path356" d="m 71.413305,25.142138 0.127,0.127 0.9525,-0.93133 -0.127,-0.127"/></g></g></svg>